<svg xmlns="http://www.w3.org/2000/svg" xmlns:xlink="http://www.w3.org/1999/xlink" version="1.1" x="0px" y="0px" viewBox="0 0 100 125" style="enable-background:new 0 0 100 100;" xml:space="preserve"><path fill="#ffffff" d="M49.043,85.154l-9.371-18.13l-19.345,9.823l7.281-14.72L1.924,66.185l20.264-15.098L3.474,41.244l21.246-0.48l-8.215-19.728  l21.103,10.347l3.312-20.212l9.968,18.338L62.52,16.693l2.413,17.713l27.225-8.567L72.227,46.153l25.587,9.662l-25.632,2.204  l12.717,18.786l-27.63-11.201L49.043,85.154z M41.511,61.321l7.137,13.808l6.329-15.042l18.565,7.526L64.6,54.403l14.205-1.221  l-14.178-5.354l12.587-12.829l-15.813,4.977l-1.862-13.671L50.01,36.802l-6.902-12.698l-2.231,13.619L24.77,29.825l6.267,15.05  l-11.051,0.25l10.155,5.341L18.29,59.294l16.773-2.65l-5.251,10.618L41.511,61.321z"/></svg>