<svg xmlns="http://www.w3.org/2000/svg" xmlns:xlink="http://www.w3.org/1999/xlink" version="1.1" x="0px" y="0px" viewBox="0 0 100 125" style="enable-background:new 0 0 100 100;" xml:space="preserve"><g><polygon fill="#ffffff" points="66.35,61.106 64.424,58.144 67.943,57.829 76.133,57.096 68.163,54.806 63.207,53.381 67.727,50.899    72.911,48.052 67.827,48.421 62.403,48.814 66.122,44.846 72.657,37.875 63.996,42.415 59.2,44.929 61.005,39.823 62.535,35.495    58.6,39.274 55.286,42.457 55.005,37.871 54.429,28.453 50.423,37.29 48.274,42.032 46.49,37.142 43.39,28.647 41.637,38.223    40.666,43.523 37.756,38.988 32.089,30.155 34.212,41.518 35.242,47.031 30.816,43.586 27.661,41.13 30.198,45.141 32.265,48.412    28.396,48.404 20.543,48.387 27.781,52.557 30.767,54.276 27.891,56.174 22.016,60.05 28.782,58.483 33.895,57.299 31.048,61.708    27.482,67.23 33.931,63.722 36.769,62.179 37.063,65.396 37.426,69.362 39.11,66.88 42.152,62.394 42.971,67.752 44.136,75.379    46.471,68.42 48.363,62.782 50.474,68.341 51.766,71.742 52.842,68.12 54.374,62.963 56.781,67.773 59.268,72.741 58.865,66.865    58.602,63.023 61.993,64.847 72.437,70.466  "/></g></svg>